<svg width="86" height="184" viewBox="0 0 86 184" fill="none" xmlns="http://www.w3.org/2000/svg">
<mask id="mask0_6_1399" style="mask-type:luminance" maskUnits="userSpaceOnUse" x="2" y="2" width="83" height="182">
<path d="M2.06293 2.21649H84.2258V183.824H2.06293V2.21649Z" fill="white"/>
</mask>
<g mask="url(#mask0_6_1399)">
<path d="M79.9176 70.053C79.5383 70.053 79.5383 70.053 79.159 70.053C79.5383 38.2192 87.8821 6.00625 51.8492 2.21649L52.6078 4.86969C45.7803 5.62709 38.9529 5.62709 31.3677 4.86969L32.1264 2.21649C29.4712 2.59565 23.4024 4.11137 22.6438 4.86969C17.3335 6.76457 13.1612 10.1752 11.2647 13.2066C7.09235 18.8913 2.92001 32.9137 5.57513 47.6936C5.95444 48.8311 5.95444 59.4421 6.33374 70.4322C4.05792 70.8114 2.16141 73.0854 2.16141 75.3594C2.16141 75.7377 2.54071 76.1168 2.92001 76.1168L5.95444 74.9803C5.95444 75.3594 6.71304 155.324 7.09235 157.218C8.60956 163.661 10.1268 170.103 10.5061 171.998C10.5061 173.135 12.4026 176.925 18.8507 179.578C28.7126 185.263 59.4353 185.263 68.9178 177.304C74.6074 173.135 73.0902 172.757 77.2625 156.839C78.7797 150.396 78.0211 145.091 78.4004 74.222L82.952 75.7386C83.3314 75.7386 83.7107 75.3594 83.7107 74.9803C84.8486 72.7062 82.5727 70.4322 79.9176 70.053ZM72.3316 14.7223C72.7109 14.7223 73.8488 14.7223 73.4695 14.7223C75.366 14.7223 74.2281 17.3755 74.6074 20.4079V21.1653C74.6074 21.1653 74.2281 20.7861 73.8488 20.7861C73.0902 20.0287 71.9523 18.513 70.8144 17.7547C71.573 16.6172 70.8144 14.7223 72.3316 14.7223ZM67.0213 10.5543C67.0213 9.0377 68.9178 9.41686 69.2971 9.41686C71.1937 9.41686 70.0557 12.0701 70.4351 16.6172C69.2971 15.4807 67.7799 13.2066 67.0213 11.6909V10.5543ZM16.1956 9.41686C16.5749 9.41686 18.4714 9.0377 18.4714 10.5543V11.6909C17.7128 13.2066 16.1956 15.4807 15.0577 16.6172C15.437 12.0701 14.2991 9.41686 16.1956 9.41686ZM14.2991 15.8598V17.3755C13.5405 18.1339 12.4026 19.6496 11.2647 20.4079C10.8854 20.4079 10.8854 20.7861 10.5061 20.7861V15.8598C10.8854 14.3441 14.2991 14.3441 14.2991 15.8598ZM15.8163 118.183C15.437 132.206 12.0233 139.785 12.0233 139.785C11.2647 129.932 10.8854 119.699 10.8854 109.088L11.2647 108.709L16.1956 111.362C15.8163 113.636 15.8163 115.909 15.8163 118.183ZM11.2647 107.952L10.8854 108.33C10.5061 96.5823 10.5061 84.4547 10.5061 72.3271C10.5061 71.5697 10.5061 70.8114 10.5061 70.053C10.5061 67.0216 10.5061 63.9902 10.5061 60.9578C11.644 70.4322 15.437 71.9479 15.8163 110.604L11.2647 107.952ZM12.0233 53.7574V53.3783C27.5747 39.735 64.7455 45.0413 72.3316 52.2417C76.8832 59.4421 68.9178 78.3909 68.5385 80.6649C68.1592 81.4232 68.1592 81.8015 65.8834 81.4232C62.4697 81.0441 53.3664 78.3909 42.7459 77.6326C32.5057 76.8752 19.9887 80.2858 17.7128 81.0441C16.5749 81.4232 15.8163 83.6964 12.0233 53.7574ZM65.5041 103.024C65.8834 105.298 64.3662 107.572 62.0904 107.572H24.161C21.8852 107.572 20.368 105.678 20.7473 103.024L22.6438 90.1393C23.0231 88.2444 24.5403 86.7287 26.4368 86.7287H59.4353C61.3318 86.7287 63.2283 88.2444 63.2283 90.1393L65.5041 103.024ZM64.7455 165.555C54.8836 171.24 31.3677 171.24 22.2645 165.555C19.9887 164.04 18.0921 162.145 18.0921 159.493L18.8507 139.027C19.23 137.511 19.9887 136.753 21.5059 137.132C37.0573 141.301 53.3664 140.922 66.2627 137.132C68.1592 137.132 68.9178 137.891 68.9178 139.027C68.9178 139.406 69.6764 160.25 69.6764 159.493C69.2971 162.145 67.4006 164.04 64.7455 165.555ZM74.9867 139.406C74.9867 139.406 71.1937 131.827 71.1937 117.804C71.1937 115.531 71.1937 113.257 71.1937 110.604L76.1246 108.33L76.5039 108.709C75.7453 119.321 75.366 129.553 74.9867 139.406ZM75.7453 107.952L70.8144 110.225C71.1937 71.1905 74.6074 70.8114 76.1246 60.9578C76.1246 63.9902 76.1246 67.0216 76.1246 70.4322V72.7062C76.5039 84.4547 76.1246 96.2031 75.7453 107.952Z" fill="black"/>
</g>
<path d="M73.1175 158.704L71.8556 160.286H71.1444L72.8768 158.226L72.0051 156.29H72.6251L73.2597 157.792L74.4633 156.29H75.1708L73.5114 158.255L74.4305 160.286H73.8177L73.1175 158.704Z" fill="black"/>
</svg>
